<svg width="88" height="61" viewBox="0 0 88 61" xmlns="http://www.w3.org/2000/svg">
    <g fill="none" fill-rule="evenodd">
        <path d="M58.124 43.715c.401 1.224.602 2.652.602 3.876 0 9.385-9.028 11.63-20.062 11.63s-20.062-2.245-20.062-11.63c0-9.384 9.028-16.933 20.062-16.933 6.42 0 12.037 2.448 15.648 6.324" fill="#E57200"/>
        <path d="M55.485 44.88c.347 1.08.52 2.337.52 3.416 0 8.267-7.803 10.244-17.34 10.244-9.539 0-17.342-1.977-17.342-10.244 0-8.268 7.803-14.918 17.341-14.918 5.55 0 10.405 2.157 13.526 5.572" fill="#F98200"/>
        <path d="M50.208 45.075c.238.714.357 1.547.357 2.261 0 5.475-5.355 6.784-11.9 6.784-6.546 0-11.902-1.31-11.902-6.784s5.356-9.878 11.901-9.878c3.808 0 7.14 1.429 9.283 3.69" fill="#F7A803"/>
        <path d="M34.354 45.635c1.383-3.251 7.804-9.163 15.103-9.163 1.38 0 2.267.073 2.66.22l5.274-3.08c.845-2.787 2.489-4.18 4.933-4.18 2.828-.051 4.657 2.203 4.686 4.31 1.746 1.045 2.9 4.382.69 6.933-1.38 1.44-3.171 1.89-5.376 1.353-1.454.8-3.261 1.868-5.422 3.202-.649 1.414-2.224 4.518-4.295 5.821-2.042 1.033-2.708-1.78-1.276-2.512.104-.075-11.237-5.391-13.758-2.979-.239.23-.239.508-.549.802-.337 1.49-2.973 1.49-2.67-.727z" fill="#E57200"/>
        <path d="M37.024 46.362c1.395-2.568 7.549-8.22 14.587-6.988.43 0 1.038.204 1.705-.295.444-.333 2.511-1.511 6.2-3.533.433-.343.621-.807.565-1.394.385-2.146 3.348-2.72 4.115-.774.179.762.179 1.139.302 1.647.29.52.442.342 1.044.923 1.018.717 1.161 3.852-2.113 3.572-.447-.204-.82-.314-1.118-.33-.158-.074-.56.072-1.206.438-.646.367-2.728 1.558-6.247 3.572-.239.267-.463.738-.671 1.412-.984 2.21-2.051 3.235-3.008 4.157-.247.239-.46.397-.614.835-3.107-.738-11.394-2.647-13.54-3.242z" fill="#F98200"/>
        <path d="M49.643 50.099c1.578-1.435 2.583-3.014 3.013-4.449l-2.726-4.735c-2.153-.574-5.31-.143-8.18 1.579-2.152 1.291-3.874 2.87-4.735 4.591" fill="#F7A803"/>
        <path d="M43.343 32.321c1.363-.647 3.005-1.522 4.923-2.625-.066-.467 1.113-4.32 5.295-4.083.492-.035 4.015.68 4.247 4.205.165.105.517.47 1.055 1.095l1.08 1.09-7.999 5.116-8.601-4.798z" fill="#E57200"/>
        <path d="m48.138 32.883 2.058-1.168c.384-.217.592-.57.623-1.057 0-.813.72-2.374 2.239-2.334 1.271-.102 1.982.958 1.998 1.37.1.465.094 1.176.206 1.391.146.247.427.56.658.686.242.198.588.456.755.812-1.109.6-2.613 1.384-4.51 2.353l-4.027-2.053z" fill="#F98200"/>
        <g fill="#5F1210" fill-rule="nonzero">
            <path d="m10.29 51.75 3.787 6.785c.631 1.13 1.578 1.696 2.84 1.696h53.65c1.262 0 2.209-.566 2.84-1.696l3.787-6.785H10.29z"/>
            <path d="M43.75 0c4.537 0 8.102 3.577 8.102 8.13 0 .976-.324 1.627-.324 2.277 16.203 3.578 28.842 17.887 29.49 35.124h3.241c1.945 0 3.241 1.3 3.241 3.252 0 1.952-1.296 3.252-3.24 3.252h-8.276c.514-2.576.696-5.255.504-7.99C75.28 26.77 59.641 13.792 41.557 15.056 23.473 16.321 9.792 31.35 11 48.624c.08 1.158.227 2.296.434 3.412H3.24C1.296 52.035 0 50.734 0 48.782c0-1.951 1.296-3.252 3.24-3.252h3.241c.973-17.237 13.288-31.546 29.491-35.124 0-.65-.324-1.3-.324-2.276C35.648 3.577 39.213 0 43.75 0z"/>
        </g>
        <path d="M31.9 29.719c-.9-1.307-.89-2.042 0-3.188 1-1.29 1.725-3.73 0-5.155l-1.825.984c1.067.88.961 2.167 0 3.187-1.21 1.287-1.486 3.392 0 5.155l1.824-.983zM45.767 27.828c-.9-1.307-.89-2.042 0-3.188 1-1.29 1.725-3.73 0-5.155l-1.824.984c1.067.88.96 2.167 0 3.187-1.211 1.287-1.486 3.392 0 5.155l1.824-.983zM39.463 27.628c-.899-1.572-.89-2.455 0-3.834 1.001-1.551 1.726-4.487 0-6.2l-1.824 1.183c1.068 1.06.961 2.607 0 3.834-1.21 1.547-1.485 4.08 0 6.2l1.824-1.183z" fill="#FFC859" fill-rule="nonzero"/>
    </g>
</svg>
